FEEL-FREE TEAM

 
http://img268.imageshack.us/img268/5954/2lvy5gw.png 
http://img338.imageshack.us/img338/5030/20lhkw.png 
http://img297.imageshack.us/img297/9623/24c8axt.png 
http://img441.imageshack.us/img441/1784/ff8ghl.png
.............................................
IMDB:http://www.imdb.com/title/tt0473075/
Release Date:Action | Adventure | Fantasy | Romance
Audio:IMAGiNE.V2.Thanks
Source Video:Relizlab.Thanks
Subtitles: ROMANA
Language:English
.............................................
General
Complete name : Prince of Persia The Sands of Time TS XVID.[V2.AUDIO].FEEL-FREE
Format : AVI
Format/Info : Audio Video Interleave
File size : 993 MiB
Duration : 1h 43mn
Overall bit rate : 1 336 Kbps
..............................................
Video
ID : 0
Format : MPEG-4 Visual
Codec ID : DIV3
Codec ID/Hint : DivX 3 Low
Duration : 1h 43mn
Bit rate : 1 198 Kbps
Width : 704 pixels
Height : 304 pixels
Display aspect ratio : 2.35:1
Frame rate : 25.000 fps
Resolution : 24 bits
Bits/(Pixel*Frame) : 0.224
Stream size : 891 MiB (90%)
..............................................
Audio
ID : 1
Format : AC-3
Format/Info : Audio Coding 3
Codec ID : 2000
Duration : 1h 43mn
Bit rate mode : Constant
Bit rate : 128 Kbps
Channel(s) : 2 channels
Channel positions : L R
Sampling rate : 48.0 KHz
Stream size : 95.2 MiB (10%)
Alignment : Split accross interleaves
Interleave, duration : 40 ms (1.00 video frame)
Interleave, preload duration : 500 ms
................................................
Plot:
Based on the video game, which follows an adventurous prince who teams up with a rival princess to stop an angry ruler from unleashing a sandstorm that could destroy the world.
